<svg width="531" height="591" viewBox="0 0 531 591" fill="none" xmlns="http://www.w3.org/2000/svg">
<path d="M251.02 327.819L252.252 312.525C253.104 301.952 255.657 291.586 259.814 281.827L260.554 280.089C263.53 273.102 267.433 266.549 272.158 260.604C277.71 253.62 284.332 247.558 291.778 242.643L296.573 239.479C302.538 235.542 308.843 232.146 315.412 229.331L317.353 228.499C328.086 223.9 339.432 220.893 351.033 219.571L353.014 219.345C366.271 217.835 379.686 218.546 392.709 221.449L410.821 225.487C434.409 230.746 455.846 243.039 472.299 260.742C481.72 270.88 489.307 282.578 494.721 295.314L498.974 305.32C505.285 320.167 508.538 336.133 508.538 352.265V364.562L506.678 385.022C506.585 386.047 506.413 387.063 506.163 388.062L502.538 402.562L497.93 415.128C497.338 416.744 496.54 418.276 495.555 419.687L482.038 439.062" stroke="#E37718" stroke-width="44"/>
<path d="M366.038 218.064L420.173 204.42C427.688 202.527 434.8 199.293 441.166 194.874C446.713 191.025 451.62 186.327 455.709 180.954L463.488 170.73C465.85 167.625 467.945 164.325 469.75 160.866L479.038 143.064L492.702 107.362C493.924 104.168 494.908 100.887 495.644 97.5466L499.422 80.3996C500.496 75.5236 501.038 70.5453 501.038 65.5524V23.0218C501.038 22.3195 500.333 21.836 499.678 22.0889L449.933 41.2886C446.011 42.8024 441.959 43.9545 437.828 44.7307L410.353 49.8922C406.152 50.6814 401.887 51.0785 397.613 51.0785H366.038H318.538L284.525 54.9409C280.873 55.3556 277.26 56.0615 273.72 57.0519L241.538 66.0556L213.538 78.064L191.593 89.0444C188.229 90.7276 185.008 92.6831 181.963 94.8913L161.038 110.064L137.038 131.064L101.538 169.557L74.0691 197.911C71.7203 200.336 69.604 202.975 67.748 205.795L48.1701 235.539C45.7543 239.209 43.6946 243.102 42.019 247.164L28.0381 281.057L24.7968 293.698C23.6274 298.259 22.9279 302.927 22.7091 307.63L22.0381 322.057L24.0993 349.677C24.3913 353.59 25.0165 357.471 25.9681 361.277L30.0373 377.554C31.3664 382.87 33.3242 388.01 35.8693 392.863L50.2638 420.313C52.441 424.465 55.0356 428.384 58.0075 432.01L73.8951 451.392C76.9817 455.158 80.4584 458.587 84.2668 461.62L103.503 476.944C106.521 479.348 109.735 481.495 113.112 483.362L146.038 501.564L190.538 521.064L234.938 538.04C239.326 539.718 243.532 541.84 247.49 544.373L279.038 564.564L319.8 539.143C323.62 536.76 327.606 534.652 331.726 532.834L376.538 513.064L414.395 495.168C425.781 489.786 436.463 483.027 446.203 475.043L457.167 466.057C460.408 463.4 463.4 460.454 466.106 457.255L484.038 436.057" stroke="#E37718" stroke-width="44" stroke-linecap="round"/>
<path d="M251.038 327.562L273.008 326.417L271.804 303.302L248.78 305.678L251.038 327.562ZM356.509 300.521C344.612 298.052 332.966 305.694 330.497 317.591C328.028 329.488 335.671 341.133 347.567 343.603L352.038 322.062L356.509 300.521ZM126.929 149.897L108.758 137.494L126.929 149.897ZM335.658 411.289L338.942 433.042L335.658 411.289ZM138.21 306.411L121.195 320.358L138.21 306.411ZM170.287 328.305L163.5 349.232L170.287 328.305ZM385.455 350.733L364.374 357.025L385.455 350.733ZM373.365 393.305L358.613 376.984L373.365 393.305ZM386.009 371.866L407.431 376.879L386.009 371.866ZM278.378 396.168L292.424 379.235L278.378 396.168ZM251.965 345.356L229.995 346.5L251.965 345.356ZM369.797 396.53L384.549 412.851L369.797 396.53ZM340.033 410.629L336.749 388.875L340.033 410.629ZM202.539 332.565L200.281 310.682L202.539 332.565ZM135.148 302.676L152.163 288.73L135.148 302.676ZM108.038 226.836H130.038V216.703H108.038H86.0381V226.836H108.038ZM369.797 396.53L384.549 412.851L388.117 409.626L373.365 393.305L358.613 376.984L355.045 380.209L369.797 396.53ZM386.009 371.866L407.431 376.879L407.503 376.571L386.082 371.557L364.661 366.544L364.588 366.852L386.009 371.866ZM354.861 322.648L359.332 301.107L356.509 300.521L352.038 322.062L347.567 343.603L350.391 344.189L354.861 322.648ZM138.21 306.411L155.224 292.465L152.163 288.73L135.148 302.676L118.134 316.622L121.195 320.358L138.21 306.411ZM174.171 329.564L180.958 308.637L177.074 307.378L170.287 328.305L163.5 349.232L167.384 350.491L174.171 329.564ZM276.818 394.873L262.771 411.805L264.332 413.1L278.378 396.168L292.424 379.235L290.864 377.941L276.818 394.873ZM322.432 412.062V434.062H325.36V412.062V390.062H322.432V412.062ZM335.658 411.289L338.942 433.042L343.316 432.382L340.033 410.629L336.749 388.875L332.375 389.535L335.658 411.289ZM251.038 327.562L248.78 305.678L200.281 310.682L202.539 332.565L204.797 354.449L253.296 349.446L251.038 327.562ZM251.038 327.562L229.068 328.706L229.995 346.5L251.965 345.356L273.935 344.212L273.008 326.417L251.038 327.562ZM115.263 175.694L135.938 183.212L139.749 172.733L119.073 165.214L98.398 157.696L94.5874 168.175L115.263 175.694ZM126.929 149.897L145.099 162.299L161.709 137.964L143.538 125.562L125.367 113.159L108.758 137.494L126.929 149.897ZM119.073 165.214L139.749 172.733C141.09 169.045 142.887 165.54 145.099 162.299L126.929 149.897L108.758 137.494C104.475 143.769 100.994 150.556 98.398 157.696L119.073 165.214ZM325.36 412.062V434.062C329.906 434.062 334.446 433.721 338.942 433.042L335.658 411.289L332.375 389.535C330.053 389.886 327.708 390.062 325.36 390.062V412.062ZM138.21 306.411L121.195 320.358C132.242 333.834 146.925 343.856 163.5 349.232L170.287 328.305L177.074 307.378C168.513 304.601 160.93 299.425 155.224 292.465L138.21 306.411ZM385.455 350.733L406.536 344.44C399.962 322.417 381.835 305.777 359.332 301.107L354.861 322.648L350.391 344.189C357.057 345.572 362.427 350.502 364.374 357.025L385.455 350.733ZM386.082 371.557L407.503 376.571C409.986 365.959 409.653 354.883 406.536 344.44L385.455 350.733L364.374 357.025C365.297 360.119 365.396 363.4 364.661 366.544L386.082 371.557ZM373.365 393.305L388.117 409.626C397.737 400.93 404.475 389.506 407.431 376.879L386.009 371.866L364.588 366.852C363.674 370.759 361.589 374.293 358.613 376.984L373.365 393.305ZM278.378 396.168L264.332 413.1C280.663 426.647 301.214 434.062 322.432 434.062V412.062V390.062C311.473 390.062 300.859 386.232 292.424 379.235L278.378 396.168ZM108.038 216.703H130.038C130.038 205.281 132.035 193.946 135.938 183.212L115.263 175.694L94.5874 168.175C88.9314 183.729 86.0381 200.152 86.0381 216.703H108.038ZM276.818 394.873L290.864 377.941C280.757 369.556 274.618 357.326 273.935 344.212L251.965 345.356L229.995 346.5C231.317 371.892 243.202 395.572 262.771 411.805L276.818 394.873ZM108.038 226.836H86.0381C86.0381 248.053 90.8047 268.999 99.9858 288.126L119.819 278.606L139.653 269.086C133.324 255.901 130.038 241.462 130.038 226.836H108.038ZM369.797 396.53L355.045 380.209C349.93 384.832 343.567 387.846 336.749 388.875L340.033 410.629L343.316 432.382C358.68 430.063 373.021 423.27 384.549 412.851L369.797 396.53ZM174.171 329.564L167.384 350.491C179.443 354.402 192.186 355.75 204.797 354.449L202.539 332.565L200.281 310.682C193.768 311.354 187.187 310.657 180.958 308.637L174.171 329.564ZM119.819 278.606L99.9858 288.126C104.876 298.315 110.969 307.882 118.134 316.622L135.148 302.676L152.163 288.73C147.224 282.704 143.024 276.109 139.653 269.086L119.819 278.606Z" fill="#E37718"/>
</svg>
